<svg width="20" height="19" viewBox="0 0 20 19" fill="none" xmlns="http://www.w3.org/2000/svg">
<path d="M9.73331 0.591514C9.79318 0.407252 10.0539 0.407252 10.1137 0.591514L12.1823 6.95778C12.209 7.04018 12.2858 7.09598 12.3725 7.09598H19.0664C19.2601 7.09598 19.3407 7.3439 19.1839 7.45778L13.7684 11.3923C13.6983 11.4433 13.669 11.5335 13.6958 11.616L15.7643 17.9822C15.8242 18.1665 15.6133 18.3197 15.4565 18.2058L10.0411 14.2713C9.97098 14.2203 9.87606 14.2203 9.80597 14.2713L4.3905 18.2058C4.23375 18.3197 4.02286 18.1665 4.08273 17.9822L6.15125 11.616C6.17803 11.5335 6.1487 11.4433 6.0786 11.3923L0.663131 7.45778C0.506389 7.3439 0.586944 7.09598 0.780688 7.09598H7.47457C7.56122 7.09598 7.63801 7.04018 7.66479 6.95778L9.73331 0.591514Z" fill="#FFAC60"/>
</svg>
