<svg width="108" height="28" viewBox="0 0 108 28" fill="none" xmlns="http://www.w3.org/2000/svg">
<g clip-path="url(#clip0_333_13)">
<path d="M60.7219 24.9183V27.5998H60.3729V26.3832H59.0082V27.5998H58.6592V24.9183H59.0082V26.093H60.3729V24.9183H60.7219Z" fill="#656864"/>
<path d="M62.3767 25.2015V26.093H63.3539V26.3797H62.3767V27.3026H63.4551V27.5928H62.0137V24.9078H63.4551V25.1945L62.3767 25.2015Z" fill="#656864"/>
<path d="M66.2892 27.002H65.1235L64.9071 27.5998H64.5371L65.5074 24.9324H65.8983L66.8616 27.5998H66.5126L66.2892 27.002ZM66.188 26.7188L65.7064 25.3624L65.2212 26.7188H66.188Z" fill="#656864"/>
<path d="M68.3412 27.3131H69.2766V27.5998H67.9922V24.9183H68.3412V27.3131Z" fill="#656864"/>
<path d="M72.0202 24.9183V25.2015H71.2908V27.5998H70.9418V25.2015H70.2088V24.9183H72.0202Z" fill="#656864"/>
<path d="M75.2239 24.9183V27.5998H74.8748V26.3832H73.5102V27.5998H73.1611V24.9183H73.5102V26.093H74.8748V24.9183H75.2239Z" fill="#656864"/>
<path d="M78.4008 24.9183L77.5317 26.5859V27.5998H77.1827V26.5859L76.3066 24.9183H76.6941L77.3537 26.2748L78.0134 24.9183H78.4008Z" fill="#656864"/>
<path d="M81.6045 27.5299C81.4746 27.4736 81.3615 27.3845 81.2764 27.2712C81.1953 27.1583 81.1525 27.0223 81.1543 26.8832H81.5242C81.5363 27.0048 81.5921 27.1179 81.6813 27.2013C81.7927 27.2935 81.935 27.3397 82.0792 27.3306C82.2216 27.3384 82.3619 27.2937 82.4736 27.2048C82.5195 27.1649 82.556 27.1155 82.5808 27.0599C82.6055 27.0043 82.6178 26.944 82.6167 26.8832C82.6201 26.7919 82.5903 26.7024 82.5329 26.6314C82.4746 26.567 82.4015 26.5178 82.32 26.4881C82.206 26.4447 82.0895 26.4085 81.971 26.3797C81.8269 26.3437 81.6857 26.297 81.5487 26.2399C81.4401 26.1935 81.346 26.1186 81.2764 26.0231C81.1941 25.9071 81.1535 25.7667 81.1612 25.6246C81.1595 25.487 81.1984 25.3521 81.2729 25.2365C81.3505 25.1209 81.4595 25.0299 81.587 24.9743C81.7325 24.9117 81.8895 24.8807 82.0478 24.8834C82.2691 24.8741 82.4871 24.9407 82.6655 25.0722C82.7427 25.1321 82.8066 25.2075 82.8529 25.2936C82.8991 25.3797 82.9269 25.4746 82.9343 25.5722H82.5504C82.543 25.5183 82.5251 25.4664 82.4975 25.4196C82.4699 25.3728 82.4333 25.3319 82.3898 25.2995C82.2815 25.2181 82.1481 25.1772 82.0129 25.1841C81.8872 25.1804 81.764 25.2199 81.6638 25.296C81.6179 25.3348 81.5814 25.3837 81.5572 25.4388C81.533 25.494 81.5217 25.5539 81.5242 25.6141C81.5217 25.701 81.5515 25.7858 81.608 25.8518C81.6632 25.9142 81.7326 25.9622 81.8104 25.9917C81.8907 26.0231 82.0059 26.0616 82.1594 26.1036C82.3046 26.1411 82.4469 26.189 82.5853 26.2469C82.6952 26.2942 82.7905 26.3703 82.861 26.4671C82.9438 26.5842 82.9844 26.7259 82.9762 26.8692C82.9728 26.9929 82.9366 27.1136 82.8715 27.2188C82.7984 27.3399 82.6917 27.4372 82.5643 27.4985C82.4167 27.5747 82.2521 27.612 82.0862 27.6068C81.9219 27.6163 81.7576 27.59 81.6045 27.5299Z" fill="#656864"/>
<path d="M84.7143 27.4494C84.5112 27.3351 84.3433 27.167 84.2292 26.9635C84.1086 26.7504 84.046 26.5092 84.0477 26.2643C84.046 26.0193 84.1086 25.7782 84.2292 25.5651C84.3422 25.3599 84.5103 25.1904 84.7143 25.0756C84.9208 24.9589 85.1543 24.8986 85.3914 24.9008C85.6355 24.8955 85.8766 24.9559 86.0895 25.0756C86.2926 25.19 86.4605 25.3581 86.5746 25.5616C86.6928 25.7754 86.7529 26.0164 86.7491 26.2608C86.7529 26.5051 86.6928 26.7462 86.5746 26.96C86.4605 27.1635 86.2926 27.3316 86.0895 27.4459C85.8772 27.5673 85.6357 27.6278 85.3914 27.6207C85.1544 27.6258 84.9205 27.5666 84.7143 27.4494ZM85.8975 27.1907C86.0471 27.102 86.1682 26.9722 86.2465 26.8166C86.3361 26.6441 86.3805 26.4517 86.3757 26.2573C86.3809 26.0606 86.3365 25.8658 86.2465 25.6909C86.1664 25.5376 86.0457 25.4093 85.8975 25.3203C85.7424 25.2319 85.5663 25.1872 85.3879 25.191C85.2107 25.1877 85.0358 25.2324 84.8818 25.3203C84.7337 25.4093 84.6129 25.5376 84.5328 25.6909C84.4428 25.8658 84.3984 26.0606 84.4037 26.2573C84.3988 26.4517 84.4433 26.6441 84.5328 26.8166C84.6111 26.9722 84.7322 27.102 84.8818 27.1907C85.0347 27.2783 85.2084 27.3229 85.3844 27.3201C85.564 27.3247 85.7415 27.2799 85.8975 27.1907Z" fill="#656864"/>
<path d="M88.2572 27.3131H89.1961V27.5998H87.9082V24.9183H88.2572V27.3131Z" fill="#656864"/>
<path d="M90.6198 24.9183V26.6139C90.6108 26.7097 90.6217 26.8064 90.6517 26.8978C90.6818 26.9893 90.7303 27.0735 90.7943 27.1453C90.8594 27.2053 90.936 27.2514 91.0194 27.2808C91.1028 27.3103 91.1913 27.3225 91.2795 27.3166C91.3671 27.3216 91.4549 27.309 91.5376 27.2796C91.6203 27.2502 91.6963 27.2045 91.7611 27.1453C91.8238 27.0726 91.8715 26.9883 91.9015 26.8971C91.9314 26.8059 91.943 26.7096 91.9357 26.6139V24.9183H92.2847V26.6104C92.2911 26.8069 92.2441 27.0015 92.1486 27.1733C92.0708 27.3229 91.949 27.445 91.7995 27.5229C91.6397 27.6 91.4639 27.6383 91.2865 27.6347C91.109 27.6391 90.933 27.6007 90.7734 27.5229C90.6243 27.4446 90.5025 27.3227 90.4244 27.1733C90.3317 27.0005 90.2859 26.8064 90.2918 26.6104V24.9183H90.6198Z" fill="#656864"/>
<path d="M95.2165 24.9183V25.2015H94.487V27.5998H94.138V25.2015H93.405V24.9183H95.2165Z" fill="#656864"/>
<path d="M96.7143 24.9183V27.5998H96.3652V24.9183H96.7143Z" fill="#656864"/>
<path d="M98.5529 27.4495C98.3505 27.3342 98.1829 27.1663 98.0677 26.9636C97.9484 26.7501 97.887 26.509 97.8897 26.2644C97.887 26.0197 97.9484 25.7786 98.0677 25.5652C98.1818 25.3607 98.3496 25.1915 98.5529 25.0757C98.7659 24.9563 99.0069 24.8959 99.2509 24.9009C99.495 24.8961 99.7359 24.9564 99.949 25.0757C100.151 25.1901 100.318 25.3583 100.431 25.5617C100.55 25.7751 100.611 26.0162 100.609 26.2609C100.611 26.5055 100.55 26.7466 100.431 26.9601C100.318 27.1634 100.151 27.3316 99.949 27.446C99.7366 27.5669 99.4952 27.6274 99.2509 27.6208C99.007 27.6286 98.7656 27.5694 98.5529 27.4495ZM99.7396 27.1908C99.8884 27.1011 100.009 26.9716 100.089 26.8167C100.177 26.6436 100.221 26.4516 100.218 26.2574C100.221 26.0609 100.177 25.8665 100.089 25.691C100.008 25.5379 99.8875 25.4097 99.7396 25.3204C99.5858 25.232 99.4108 25.1872 99.2335 25.1911C99.0562 25.1872 98.8812 25.232 98.7274 25.3204C98.5795 25.4097 98.4588 25.5379 98.3784 25.691C98.29 25.8665 98.2457 26.0609 98.2492 26.2574C98.246 26.4516 98.2903 26.6436 98.3784 26.8167C98.4576 26.9716 98.5785 27.1011 98.7274 27.1908C98.8816 27.2783 99.0563 27.323 99.2335 27.3202C99.4154 27.326 99.5955 27.2813 99.7535 27.1908H99.7396Z" fill="#656864"/>
<path d="M103.851 27.5997H103.502L102.106 25.4637V27.5997H101.757V24.9148H102.106L103.502 27.0439V24.9148H103.851V27.5997Z" fill="#656864"/>
<path d="M105.534 27.5298C105.396 27.4773 105.275 27.3878 105.185 27.2711C105.106 27.1567 105.064 27.0217 105.062 26.883H105.436C105.447 27.0043 105.501 27.1174 105.59 27.2012C105.701 27.2933 105.843 27.3396 105.987 27.3305C106.13 27.339 106.27 27.2941 106.382 27.2047C106.428 27.1655 106.466 27.1161 106.49 27.0604C106.515 27.0047 106.527 26.944 106.525 26.883C106.528 26.7918 106.499 26.7023 106.441 26.6313C106.384 26.5671 106.312 26.5179 106.232 26.488C106.118 26.4451 106.001 26.4089 105.883 26.3796C105.738 26.3435 105.595 26.2968 105.457 26.2398C105.349 26.1917 105.256 26.1171 105.185 26.023C105.104 25.9066 105.064 25.7661 105.073 25.6245C105.069 25.4866 105.108 25.351 105.185 25.2364C105.262 25.1217 105.369 25.0309 105.495 24.9742C105.642 24.912 105.8 24.881 105.959 24.8833C106.18 24.874 106.397 24.9406 106.574 25.0721C106.652 25.1316 106.716 25.2069 106.763 25.293C106.81 25.3792 106.838 25.4742 106.846 25.572H106.462C106.446 25.4638 106.388 25.366 106.302 25.2993C106.193 25.2179 106.06 25.1771 105.925 25.184C105.799 25.1803 105.676 25.2198 105.576 25.2958C105.529 25.3342 105.492 25.383 105.468 25.4382C105.444 25.4935 105.433 25.5537 105.436 25.614C105.433 25.7009 105.463 25.7857 105.52 25.8517C105.574 25.9147 105.644 25.9629 105.722 25.9916C105.802 26.023 105.914 26.0615 106.071 26.1034C106.217 26.1399 106.359 26.1878 106.497 26.2468C106.608 26.294 106.704 26.37 106.776 26.467C106.858 26.5848 106.898 26.726 106.891 26.869C106.888 26.9928 106.852 27.1135 106.787 27.2186C106.713 27.3391 106.606 27.4361 106.48 27.4983C106.331 27.5742 106.165 27.6114 105.998 27.6067C105.839 27.6142 105.681 27.588 105.534 27.5298Z" fill="#656864"/>
<path fill-rule="evenodd" clip-rule="evenodd" d="M104.002 13.9164C104.001 13.4285 103.906 12.9454 103.723 12.4935C103.54 12.0467 103.282 11.6351 102.958 11.2769C102.637 10.9251 102.252 10.6369 101.824 10.4274C101.39 10.2114 100.912 10.1012 100.428 10.1057C99.9515 10.1003 99.4781 10.1833 99.0318 10.3504C98.6097 10.5149 98.2259 10.7649 97.9045 11.0846C97.5754 11.4316 97.3201 11.842 97.1541 12.2907C96.9633 12.8111 96.8698 13.3621 96.8783 13.9164C96.8697 14.4729 96.9631 15.0263 97.1541 15.549C97.3194 15.9961 97.5748 16.4043 97.9045 16.7482C98.223 17.0715 98.6075 17.322 99.0318 17.4823C99.4772 17.6535 99.9509 17.7389 100.428 17.734C100.912 17.7386 101.39 17.6283 101.824 17.4124C102.25 17.2004 102.635 16.9126 102.958 16.5629C103.283 16.2033 103.542 15.7891 103.723 15.3393C103.908 14.8878 104.002 14.4044 104.002 13.9164ZM107.604 21.0622H106.735L105.339 19.1325C104.998 19.4432 104.636 19.7305 104.257 19.9925C103.879 20.2609 103.479 20.4949 103.06 20.6917C102.646 20.8868 102.215 21.0425 101.772 21.1566C101.333 21.2725 100.881 21.3313 100.428 21.3314C99.4742 21.3374 98.5275 21.1668 97.6357 20.828C96.7862 20.5085 96.0115 20.0169 95.3601 19.3842C94.6916 18.7232 94.1674 17.9303 93.8209 17.0558C93.4306 16.0537 93.2397 14.9849 93.2589 13.9094C93.2478 12.88 93.4387 11.8584 93.8209 10.9028C94.1741 10.0246 94.6972 9.22496 95.3601 8.55C96.0174 7.89486 96.7996 7.37886 97.6602 7.03271C98.545 6.66528 99.4945 6.47981 100.452 6.48734C100.908 6.48733 101.361 6.54371 101.803 6.65516C102.249 6.77178 102.683 6.93099 103.098 7.13061C103.516 7.32897 103.917 7.5629 104.295 7.82982C104.663 8.09954 105.012 8.3951 105.339 8.7143L106.735 7.05021H107.604V21.0622ZM91.3079 21.0622H87.7129V7.02224H91.3079V21.0622ZM91.5138 3.11369C91.5165 3.40571 91.4582 3.69506 91.3428 3.96322C91.231 4.2239 91.0712 4.46112 90.8716 4.66243C90.6691 4.85869 90.4326 5.01627 90.1736 5.1274C89.9055 5.2466 89.6152 5.30736 89.3219 5.30568C89.0275 5.30775 88.736 5.24698 88.4668 5.1274C88.2059 5.01987 87.9687 4.86186 87.7688 4.66243C87.5703 4.46019 87.4106 4.2232 87.2976 3.96322C87.1841 3.69446 87.1259 3.40551 87.1266 3.11369C87.1267 2.82194 87.1848 2.53314 87.2976 2.26416C87.4113 2.00456 87.5709 1.76769 87.7688 1.56496C87.9687 1.36552 88.2059 1.20751 88.4668 1.09998C88.737 0.984296 89.0281 0.92597 89.3219 0.928679C89.6146 0.926353 89.9045 0.984672 90.1736 1.09998C90.4326 1.21111 90.6691 1.36869 90.8716 1.56496C91.0706 1.76679 91.2303 2.00388 91.3428 2.26416C91.4573 2.53263 91.5155 2.82177 91.5138 3.11369ZM77.4167 21.0622L72.0801 7.02224H76.1497L79.2107 15.7623L82.2577 7.02224H86.3413L81.0047 21.0622H77.4167Z" fill="#A5CD39"/>
<path d="M49.1451 20.9958H45.5851V6.95577H46.4472L47.6269 8.61988C48.2013 8.09893 48.8661 7.68776 49.5884 7.40675C50.3146 7.12704 51.086 6.98365 51.864 6.98374H55.0053V10.5497H51.864C51.5045 10.549 51.1485 10.6203 50.8169 10.7594C50.4932 10.8925 50.199 11.0885 49.9514 11.3363C49.7073 11.5856 49.5119 11.8785 49.3755 12.1998C49.2366 12.5319 49.1654 12.8885 49.1661 13.2486L49.1451 20.9958ZM40.8627 20.9958C40.0231 21.0027 39.1911 20.8349 38.4196 20.5028C37.6734 20.1862 36.9955 19.728 36.4231 19.1534C35.8522 18.5785 35.394 17.9013 35.0724 17.1572C34.7455 16.3832 34.5804 15.5503 34.5873 14.7099V10.5497H32.8421V6.98374H34.5873V2.20117H38.1473V6.98374H43.5607V10.5497H38.1473V14.7204C38.1456 15.0799 38.2143 15.4363 38.3498 15.7692C38.4871 16.0878 38.6837 16.3773 38.9291 16.6222C39.1772 16.8721 39.4711 17.0715 39.7947 17.2096C40.1256 17.3515 40.4819 17.424 40.8418 17.4229H43.5502V20.9888L40.8627 20.9958ZM29.0727 19.3596C28.7808 19.6241 28.4731 19.8704 28.1512 20.0973C27.8275 20.3276 27.4842 20.5289 27.1251 20.6986C26.7678 20.8673 26.3964 21.0042 26.0152 21.1076C25.6381 21.2068 25.2498 21.2573 24.8599 21.258C24.0237 21.2645 23.194 21.109 22.4167 20.8C21.6704 20.5024 20.9906 20.0592 20.4168 19.496C19.834 18.9094 19.3768 18.2099 19.0731 17.4403C18.7362 16.5739 18.5702 15.6502 18.5844 14.7204V6.95577H22.141V14.7204C22.1347 15.1497 22.2081 15.5765 22.3574 15.979C22.4867 16.3277 22.6836 16.6473 22.9368 16.9194C23.1806 17.1685 23.4728 17.3648 23.7954 17.4963C24.1289 17.6273 24.4842 17.6937 24.8425 17.692C25.2067 17.6945 25.5661 17.6081 25.8895 17.4403C26.2142 17.268 26.5051 17.0382 26.7481 16.7621C26.9932 16.4806 27.188 16.1589 27.324 15.8112C27.4625 15.4643 27.5335 15.094 27.5334 14.7204V6.95577H31.104V20.9958H30.2419L29.0727 19.3596ZM15.8551 20.9958H11.8413L4.60945 8.61288V20.9888H0.857422V2.20117H4.87471L12.11 14.5841V2.20117H15.8655L15.8551 20.9958Z" fill="#103605"/>
<path d="M79.9745 5.13782C79.9495 5.16409 79.9227 5.18862 79.8943 5.21124C79.8303 5.21483 79.7662 5.21483 79.7023 5.21124L79.9745 5.13782Z" fill="#FFF200"/>
<path d="M79.7023 5.19724L79.9745 5.13782C79.9495 5.16409 79.9227 5.18862 79.8943 5.21124C79.8301 5.21019 79.766 5.2055 79.7023 5.19724Z" fill="#FFF200"/>
<path d="M58.3486 13.9094C58.3486 13.9094 58.3486 13.9408 58.3486 13.9548C58.3486 13.9688 58.3486 14.0457 58.3486 14.0911C58.3556 14.0317 58.3486 13.9688 58.3486 13.9094ZM65.7829 11.7243H65.755H65.7864H65.7829ZM65.6572 11.7034H65.5979H65.6293H65.6572Z" fill="#A5CD39"/>
<path d="M58.3486 13.9094C58.3486 13.9094 58.3486 13.9408 58.3486 13.9548C58.3486 13.9688 58.3486 14.0457 58.3486 14.0911C58.3556 14.0317 58.3486 13.9688 58.3486 13.9094ZM65.7829 11.7243H65.755H65.7864H65.7829ZM65.6572 11.7034H65.5979H65.6293H65.6572Z" fill="#A5CD39"/>
<path d="M58.3486 13.9094C58.3486 13.9094 58.3486 13.9408 58.3486 13.9548C58.3486 13.9688 58.3486 14.0457 58.3486 14.0911C58.3556 14.0317 58.3486 13.9688 58.3486 13.9094ZM65.7829 11.7243H65.755H65.7864H65.7829ZM65.6572 11.7034H65.5979H65.6293H65.6572Z" fill="#A5CD39"/>
<path d="M58.3486 13.9094C58.3486 13.9094 58.3486 13.9408 58.3486 13.9548C58.3486 13.9688 58.3486 14.0457 58.3486 14.0911C58.3556 14.0317 58.3486 13.9688 58.3486 13.9094ZM65.7829 11.7243H65.755H65.7864H65.7829ZM65.6572 11.7034H65.5979H65.6293H65.6572Z" fill="#A5CD39"/>
<path d="M65.0153 6.80545C66.7292 6.8058 68.3775 7.46489 69.6205 8.64682C70.8635 9.82874 71.6062 11.4434 71.6956 13.1577C71.6956 13.0563 71.6956 12.9514 71.6956 12.8466C71.6971 11.6353 71.4313 10.4387 70.9172 9.34239C70.4032 8.24606 69.6535 7.27707 68.7219 6.50478C67.3225 5.48836 65.6375 4.94249 63.9089 4.94557C61.7243 4.94557 59.6292 5.81483 58.0844 7.36212C56.5397 8.90941 55.6719 11.008 55.6719 13.1962C55.6704 14.4033 55.9342 15.596 56.4445 16.6896C56.9548 17.7832 57.6991 18.7508 58.6246 19.524C60.1054 20.7677 61.9765 21.4485 63.9089 21.4468C64.6156 21.4476 65.3194 21.3571 66.003 21.1776C67.5371 20.7753 68.9224 19.9376 69.9924 18.7653C70.6544 17.9225 71.0958 16.9276 71.2768 15.8706C71.3188 15.6512 71.3468 15.4294 71.3606 15.2064C71.3606 15.0456 71.3606 14.8882 71.3606 14.7309C71.3634 12.997 70.6798 11.3326 69.4597 10.1026C68.2395 8.87258 66.5823 8.17721 64.8513 8.16889H64.5441C64.394 8.16889 64.2439 8.18988 64.0974 8.20736C65.3627 8.24551 66.5766 8.71772 67.5359 9.54502C68.4953 10.3723 69.1419 11.5045 69.3676 12.7522C69.024 12.1517 68.5278 11.653 67.9296 11.3067C67.3313 10.9604 66.6521 10.7788 65.9612 10.7804C65.343 10.7797 64.7333 10.9253 64.182 11.2054C63.6306 11.4854 63.1532 11.8921 62.7885 12.3921C63.4543 11.9122 64.2544 11.6552 65.0746 11.6579H65.2526H65.3329H65.476H65.5109H65.6121H65.6715H65.6889H65.7692H65.8669H65.9263H65.9681C66.0261 11.6694 66.0832 11.6845 66.1392 11.7034L66.1985 11.7209C66.9361 11.9404 67.5833 12.3923 68.0442 13.0095C68.505 13.6267 68.755 14.3762 68.7569 15.1469C68.7584 16.0823 68.3893 16.98 67.7307 17.6431L67.6539 17.7165L67.4899 17.8599L67.4131 17.9263C67.1506 18.1458 66.8664 18.338 66.565 18.4996C65.7535 18.9466 64.842 19.1799 63.9159 19.1778H63.6681C62.3708 19.1251 61.1342 18.6135 60.1778 17.734C60.0871 17.6501 59.9998 17.5662 59.916 17.4788C59.8323 17.3914 59.7904 17.346 59.7311 17.276L59.5879 17.1082C59.5777 17.0995 59.5694 17.0888 59.5635 17.0768C59.0683 16.4609 58.7112 15.7455 58.5164 14.9791C58.5164 14.9127 58.485 14.8498 58.4746 14.7868C58.4641 14.7239 58.4327 14.5841 58.4152 14.4792C58.3978 14.3743 58.3908 14.3184 58.3803 14.2345V14.1506C58.3803 14.0912 58.3803 14.0317 58.3803 13.9723C58.3803 13.9129 58.3803 13.8814 58.3803 13.8359C58.3803 13.6856 58.3629 13.5353 58.3629 13.385C58.3939 11.6352 59.1073 9.96698 60.3505 8.73735C61.5938 7.50773 63.2681 6.81431 65.0153 6.80545ZM67.7028 12.6858L67.6574 12.6438L67.7028 12.6823V12.6858Z" fill="#A5CD39"/>
<path d="M68.6591 16.1048C68.6591 16.1048 68.6801 16.3111 68.6801 16.7062C68.6578 17.5266 68.5106 18.3389 68.2438 19.1149C67.6799 19.4815 67.0725 19.7763 66.4358 19.9924C65.5775 20.2866 64.6765 20.4366 63.7693 20.4364C62.7131 20.4377 61.6667 20.2348 60.6874 19.8386C61.2211 20.4185 61.8359 20.9178 62.5128 21.3209C60.5833 20.9926 58.8383 19.974 57.602 18.4542C57.0291 17.7945 56.5713 17.0428 56.2478 16.2307C55.8624 15.2611 55.6692 14.2257 55.6789 13.1822C55.6789 13.0179 55.6789 12.8326 55.6963 12.6613C55.7699 11.4739 56.0972 10.3163 56.6561 9.26663C57.2365 8.184 58.0553 7.24789 59.0505 6.52924C60.3759 5.54742 61.9681 4.99264 63.6157 4.93856C64.8013 4.8954 65.9823 5.10886 67.078 5.56436C67.1862 5.69022 67.3189 5.86851 67.4271 6.00136C67.635 6.27596 67.8239 6.56446 67.9925 6.86487C68.0553 6.96625 68.1112 7.07114 68.1635 7.17602C68.0414 7.1096 67.9192 7.04317 67.7901 6.98024C66.9063 6.5435 65.9508 6.27106 64.9699 6.17616C64.7047 6.15169 64.4324 6.13769 64.1602 6.13769C62.7534 6.13581 61.3698 6.49702 60.1429 7.1865C60.612 7.41429 61.0987 7.60369 61.5983 7.75285C61.3233 7.90639 61.0648 8.088 60.827 8.29475C59.3192 9.66868 58.335 11.3398 58.335 13.4863C58.3208 14.2619 58.4584 15.0326 58.7398 15.7552C58.7189 15.6678 58.7398 15.8426 58.7398 15.7552C59.0508 16.5474 59.5382 17.258 60.1648 17.8329C60.7914 18.4078 61.5407 18.832 62.3557 19.073C62.7374 19.1803 63.1293 19.2471 63.525 19.2722H63.7728C65.9123 19.2722 67.9157 18.3038 68.6207 16.2552L68.6591 16.1048Z" fill="#103605"/>
<path d="M64.6977 10.5461C65.2162 10.5461 65.6365 10.1251 65.6365 9.60571C65.6365 9.08633 65.2162 8.66528 64.6977 8.66528C64.1791 8.66528 63.7588 9.08633 63.7588 9.60571C63.7588 10.1251 64.1791 10.5461 64.6977 10.5461Z" fill="#103605"/>
<path fill-rule="evenodd" clip-rule="evenodd" d="M60.9697 4.56454C61.6887 0.872742 63.4548 2.77458 64.5682 0.935669C64.3239 2.91791 63.5665 4.21145 61.399 4.48764C62.0692 3.39338 62.6241 2.98785 63.6084 2.19775C61.9924 3.11371 62.0238 3.18361 60.9697 4.56454Z" fill="#A5CD39"/>
<path fill-rule="evenodd" clip-rule="evenodd" d="M55.8115 0.816772C55.8394 3.39334 57.595 4.95954 59.9998 5.28117C59.3506 3.86529 58.1919 3.04025 56.911 2.26413C59.0714 3.0822 59.2843 3.51221 60.478 5.41055C60.101 1.38663 57.4694 2.47738 55.8115 0.816772Z" fill="#A5CD39"/>
</g>
<defs>
<clipPath id="clip0_333_13">
<rect width="106.742" height="26.8075" fill="white" transform="translate(0.857422 0.816772)"/>
</clipPath>
</defs>
</svg>
