<svg width="210" height="53" viewBox="0 0 210 53" fill="none" xmlns="http://www.w3.org/2000/svg">
<g clip-path="url(#clip0_333_9347)">
<path d="M117.764 47.4121V52.687H117.078V50.2937H114.393V52.687H113.707V47.4121H114.393V49.7229H117.078V47.4121H117.764Z" fill="white"/>
<path d="M121.019 47.9688V49.7225H122.941V50.2865H121.019V52.1021H123.14V52.6728H120.305V47.3911H123.14V47.9551L121.019 47.9688Z" fill="white"/>
<path d="M128.716 51.5108H126.422L125.997 52.6868H125.269L127.178 47.4395H127.947L129.842 52.6868H129.155L128.716 51.5108ZM128.516 50.9537L127.569 48.2853L126.615 50.9537H128.516Z" fill="white"/>
<path d="M132.753 52.123H134.593V52.687H132.066V47.4121H132.753V52.123Z" fill="white"/>
<path d="M139.989 47.4121V47.9692H138.554V52.687H137.868V47.9692H136.426V47.4121H139.989Z" fill="white"/>
<path d="M146.292 47.4121V52.687H145.606V50.2937H142.921V52.687H142.235V47.4121H142.921V49.7229H145.606V47.4121H146.292Z" fill="white"/>
<path d="M152.54 47.4121L150.831 50.6925V52.687H150.144V50.6925L148.421 47.4121H149.183L150.481 50.0805L151.778 47.4121H152.54Z" fill="white"/>
<path d="M158.843 52.5491C158.588 52.4383 158.365 52.263 158.198 52.0402C158.038 51.818 157.954 51.5505 157.958 51.2768H158.685C158.709 51.5161 158.819 51.7385 158.994 51.9026C159.213 52.0839 159.493 52.1749 159.777 52.1571C160.057 52.1724 160.333 52.0843 160.553 51.9095C160.643 51.8311 160.715 51.7338 160.764 51.6245C160.812 51.5151 160.837 51.3965 160.834 51.2768C160.841 51.0972 160.783 50.9213 160.67 50.7816C160.555 50.6549 160.411 50.5582 160.251 50.4997C160.027 50.4142 159.797 50.343 159.564 50.2865C159.281 50.2157 159.003 50.1237 158.733 50.0114C158.52 49.9201 158.335 49.7728 158.198 49.585C158.036 49.3568 157.956 49.0805 157.971 48.801C157.968 48.5304 158.044 48.2649 158.191 48.0376C158.344 47.8102 158.558 47.6312 158.809 47.5218C159.095 47.3986 159.404 47.3376 159.715 47.343C160.151 47.3247 160.579 47.4557 160.931 47.7144C161.082 47.8322 161.208 47.9805 161.299 48.1499C161.39 48.3193 161.445 48.506 161.459 48.6978H160.704C160.69 48.5919 160.654 48.4899 160.6 48.3978C160.546 48.3057 160.474 48.2253 160.388 48.1614C160.175 48.0013 159.913 47.921 159.647 47.9345C159.399 47.9273 159.157 48.0049 158.96 48.1545C158.87 48.231 158.798 48.3271 158.75 48.4356C158.703 48.544 158.68 48.662 158.685 48.7804C158.68 48.9513 158.739 49.1181 158.85 49.248C158.959 49.3707 159.095 49.4651 159.248 49.5231C159.406 49.585 159.633 49.6607 159.935 49.7432C160.221 49.817 160.5 49.9113 160.773 50.0251C160.989 50.1182 161.176 50.2678 161.315 50.4584C161.478 50.6887 161.558 50.9675 161.542 51.2493C161.535 51.4927 161.464 51.7301 161.336 51.937C161.192 52.1754 160.982 52.3666 160.731 52.4872C160.441 52.6372 160.117 52.7106 159.791 52.7004C159.468 52.719 159.145 52.6673 158.843 52.5491Z" fill="white"/>
<path d="M164.961 52.3911C164.561 52.1662 164.231 51.8354 164.006 51.4352C163.769 51.0159 163.646 50.5416 163.649 50.0597C163.646 49.5778 163.769 49.1035 164.006 48.6842C164.229 48.2806 164.559 47.9471 164.961 47.7215C165.367 47.4917 165.826 47.3731 166.293 47.3776C166.773 47.3671 167.247 47.4859 167.666 47.7215C168.066 47.9464 168.396 48.2771 168.62 48.6774C168.853 49.0979 168.971 49.5722 168.964 50.0528C168.971 50.5335 168.853 51.0077 168.62 51.4283C168.396 51.8286 168.066 52.1593 167.666 52.3842C167.249 52.6231 166.773 52.742 166.293 52.7281C165.827 52.738 165.366 52.6216 164.961 52.3911ZM167.288 51.8822C167.583 51.7076 167.821 51.4522 167.975 51.1463C168.151 50.8069 168.239 50.4283 168.229 50.0459C168.239 49.6591 168.152 49.2758 167.975 48.9318C167.817 48.6302 167.58 48.3779 167.288 48.2028C166.983 48.0289 166.637 47.9409 166.286 47.9484C165.937 47.9418 165.593 48.0298 165.29 48.2028C164.999 48.3779 164.761 48.6302 164.604 48.9318C164.427 49.2758 164.339 49.6591 164.35 50.0459C164.34 50.4283 164.428 50.8069 164.604 51.1463C164.758 51.4522 164.996 51.7076 165.29 51.8822C165.591 52.0544 165.933 52.1423 166.279 52.1366C166.632 52.1457 166.981 52.0577 167.288 51.8822Z" fill="white"/>
<path d="M171.93 52.123H173.777V52.687H171.243V47.4121H171.93V52.123Z" fill="white"/>
<path d="M176.578 47.4121V50.7476C176.56 50.9361 176.582 51.1263 176.641 51.3061C176.7 51.486 176.795 51.6517 176.921 51.7929C177.049 51.9109 177.2 52.0016 177.364 52.0596C177.528 52.1175 177.702 52.1414 177.876 52.1299C178.048 52.1397 178.221 52.1149 178.383 52.0571C178.546 51.9992 178.696 51.9094 178.823 51.7929C178.946 51.65 179.04 51.484 179.099 51.3046C179.158 51.1252 179.181 50.9359 179.166 50.7476V47.4121H179.853V50.7407C179.866 51.1273 179.773 51.51 179.585 51.848C179.432 52.1424 179.193 52.3825 178.899 52.5357C178.584 52.6873 178.238 52.7627 177.889 52.7557C177.54 52.7643 177.194 52.6888 176.88 52.5357C176.587 52.3818 176.347 52.1418 176.194 51.848C176.011 51.5082 175.921 51.1263 175.933 50.7407V47.4121H176.578Z" fill="white"/>
<path d="M185.62 47.4121V47.9692H184.185V52.687H183.499V47.9692H182.057V47.4121H185.62Z" fill="white"/>
<path d="M188.566 47.4121V52.687H187.879V47.4121H188.566Z" fill="white"/>
<path d="M192.184 52.391C191.786 52.1641 191.456 51.8339 191.23 51.4351C190.995 51.0152 190.874 50.5409 190.88 50.0596C190.874 49.5784 190.995 49.1041 191.23 48.6842C191.454 48.282 191.784 47.9491 192.184 47.7214C192.603 47.4864 193.077 47.3677 193.557 47.3775C194.038 47.368 194.511 47.4867 194.931 47.7214C195.328 47.9465 195.656 48.2773 195.878 48.6773C196.113 49.0972 196.234 49.5715 196.228 50.0527C196.234 50.534 196.113 51.0083 195.878 51.4282C195.656 51.8282 195.328 52.159 194.931 52.3841C194.513 52.622 194.038 52.7409 193.557 52.728C193.078 52.7433 192.603 52.6268 192.184 52.391ZM194.519 51.8821C194.812 51.7057 195.049 51.4508 195.205 51.1462C195.378 50.8058 195.466 50.4279 195.459 50.0459C195.466 49.6593 195.379 49.2769 195.205 48.9317C195.047 48.6305 194.81 48.3784 194.519 48.2028C194.216 48.0287 193.872 47.9407 193.523 47.9483C193.174 47.9407 192.83 48.0287 192.528 48.2028C192.237 48.3784 191.999 48.6305 191.841 48.9317C191.667 49.2769 191.58 49.6593 191.587 50.0459C191.581 50.4279 191.668 50.8058 191.841 51.1462C191.997 51.4508 192.235 51.7057 192.528 51.8821C192.831 52.0542 193.175 52.1421 193.523 52.1366C193.881 52.1482 194.235 52.0601 194.546 51.8821H194.519Z" fill="white"/>
<path d="M202.607 52.6865H201.92L199.174 48.4845V52.6865H198.487V47.4048H199.174L201.92 51.593V47.4048H202.607V52.6865Z" fill="white"/>
<path d="M205.916 52.5491C205.645 52.4459 205.407 52.2698 205.23 52.0402C205.076 51.8152 204.992 51.5495 204.989 51.2768H205.724C205.745 51.5153 205.853 51.7378 206.026 51.9026C206.245 52.0839 206.525 52.1749 206.809 52.1571C207.089 52.1737 207.365 52.0855 207.585 51.9095C207.676 51.8324 207.749 51.7353 207.798 51.6257C207.847 51.5161 207.87 51.3968 207.866 51.2768C207.873 51.0972 207.814 50.9213 207.701 50.7816C207.589 50.6553 207.448 50.5584 207.289 50.4997C207.065 50.4153 206.835 50.3442 206.603 50.2865C206.317 50.2155 206.037 50.1236 205.765 50.0114C205.553 49.9168 205.369 49.7701 205.23 49.585C205.07 49.356 204.993 49.0797 205.01 48.801C205.002 48.5299 205.079 48.2631 205.23 48.0376C205.381 47.812 205.593 47.6333 205.841 47.5218C206.129 47.3994 206.44 47.3385 206.754 47.343C207.187 47.3246 207.614 47.4557 207.962 47.7144C208.115 47.8315 208.242 47.9796 208.334 48.149C208.427 48.3185 208.482 48.5055 208.498 48.6979H207.742C207.71 48.4848 207.597 48.2925 207.427 48.1614C207.214 48.0013 206.951 47.921 206.685 47.9345C206.438 47.9273 206.196 48.0049 205.998 48.1545C205.907 48.2299 205.834 48.3259 205.787 48.4346C205.739 48.5433 205.717 48.6618 205.724 48.7804C205.719 48.9514 205.778 49.1181 205.889 49.248C205.996 49.372 206.133 49.4667 206.287 49.5231C206.445 49.585 206.664 49.6607 206.973 49.7432C207.26 49.815 207.54 49.9092 207.811 50.0252C208.029 50.118 208.219 50.2676 208.36 50.4584C208.52 50.6901 208.6 50.9679 208.587 51.2493C208.58 51.4928 208.509 51.7301 208.381 51.937C208.236 52.1739 208.026 52.3647 207.777 52.4872C207.484 52.6364 207.158 52.7096 206.829 52.7004C206.518 52.7151 206.206 52.6635 205.916 52.5491Z" fill="white"/>
<path fill-rule="evenodd" clip-rule="evenodd" d="M202.902 25.7689C202.9 24.8092 202.714 23.8588 202.353 22.9699C201.993 22.091 201.485 21.2812 200.849 20.5766C200.216 19.8845 199.459 19.3177 198.618 18.9054C197.765 18.4806 196.824 18.2639 195.871 18.2727C194.934 18.262 194.003 18.4252 193.125 18.7541C192.294 19.0777 191.539 19.5694 190.907 20.1984C190.26 20.881 189.758 21.6882 189.431 22.571C189.056 23.5946 188.872 24.6786 188.889 25.7689C188.871 26.8637 189.055 27.9524 189.431 28.9806C189.756 29.8601 190.259 30.6631 190.907 31.3395C191.534 31.9756 192.29 32.4683 193.125 32.7837C194.001 33.1204 194.933 33.2885 195.871 33.2789C196.824 33.2878 197.765 33.071 198.618 32.6462C199.456 32.2292 200.212 31.663 200.849 30.975C201.488 30.2677 201.997 29.4528 202.353 28.568C202.716 27.6798 202.903 26.7289 202.902 25.7689ZM209.988 39.8261H208.278L205.532 36.0298C204.861 36.6411 204.15 37.2063 203.403 37.7216C202.661 38.2497 201.873 38.71 201.048 39.0971C200.234 39.4809 199.386 39.7872 198.515 40.0118C197.652 40.2397 196.763 40.3553 195.871 40.3556C193.995 40.3674 192.133 40.0317 190.378 39.3653C188.707 38.7367 187.183 37.7698 185.902 36.525C184.587 35.2248 183.556 33.6651 182.874 31.9447C182.106 29.9735 181.731 27.8708 181.769 25.7552C181.747 23.7302 182.122 21.7206 182.874 19.8407C183.569 18.1131 184.598 16.5401 185.902 15.2123C187.195 13.9236 188.734 12.9085 190.427 12.2276C192.167 11.5048 194.035 11.1399 195.919 11.1547C196.815 11.1547 197.708 11.2656 198.576 11.4849C199.453 11.7143 200.306 12.0275 201.124 12.4202C201.946 12.8104 202.734 13.2705 203.479 13.7956C204.203 14.3262 204.889 14.9076 205.532 15.5355L208.278 12.262H209.988V39.8261ZM177.931 39.8261H170.859V12.207H177.931V39.8261ZM178.336 4.5182C178.341 5.09264 178.226 5.66184 177.999 6.18937C177.779 6.70217 177.465 7.16882 177.072 7.56482C176.674 7.95091 176.209 8.2609 175.699 8.47951C175.172 8.71399 174.601 8.83351 174.024 8.83021C173.445 8.83428 172.871 8.71475 172.342 8.47951C171.828 8.26798 171.362 7.95715 170.968 7.56482C170.578 7.16699 170.264 6.70078 170.042 6.18937C169.818 5.66067 169.704 5.09226 169.705 4.5182C169.705 3.94428 169.82 3.37616 170.042 2.84703C170.265 2.33635 170.579 1.87038 170.968 1.47157C171.362 1.07924 171.828 0.768413 172.342 0.556883C172.873 0.329312 173.446 0.214576 174.024 0.219904C174.599 0.215327 175.17 0.330053 175.699 0.556883C176.209 0.775492 176.674 1.08548 177.072 1.47157C177.464 1.8686 177.778 2.335 177.999 2.84703C178.224 3.37515 178.339 3.94394 178.336 4.5182ZM150.604 39.8261L140.106 12.207H148.112L154.133 29.4001L160.127 12.207H168.16L157.662 39.8261H150.604Z" fill="#A5CD39"/>
<path d="M94.9901 39.6953H87.9869V12.0763H89.6828L92.0035 15.3498C93.1334 14.325 94.4412 13.5162 95.8621 12.9634C97.2907 12.4132 98.8082 12.1311 100.339 12.1313H106.518V19.1461H100.339C99.6315 19.1448 98.9312 19.2851 98.2789 19.5587C97.642 19.8204 97.0632 20.2061 96.5762 20.6934C96.096 21.1839 95.7117 21.7601 95.4433 22.3922C95.1701 23.0455 95.0301 23.747 95.0313 24.4553L94.9901 39.6953ZM78.6973 39.6953C77.0455 39.709 75.4089 39.3788 73.8911 38.7257C72.4234 38.1028 71.0898 37.2013 69.9638 36.071C68.8407 34.9401 67.9394 33.6081 67.3067 32.1441C66.6637 30.6215 66.3389 28.9832 66.3523 27.33V19.1461H62.9194V12.1313H66.3523V2.72314H73.3556V12.1313H84.0046V19.1461H73.3556V27.3506C73.3521 28.0578 73.4874 28.7589 73.7538 29.4138C74.024 30.0406 74.4108 30.61 74.8936 31.0919C75.3815 31.5833 75.9597 31.9757 76.5963 32.2473C77.2472 32.5264 77.9481 32.6691 78.6561 32.6668H83.9841V39.6816L78.6973 39.6953ZM55.5042 36.4768C54.93 36.9969 54.3247 37.4815 53.6916 37.9279C53.0548 38.381 52.3793 38.7769 51.673 39.1108C50.9702 39.4427 50.2396 39.7119 49.4896 39.9154C48.7477 40.1105 47.984 40.2099 47.217 40.2111C45.5719 40.224 43.9399 39.9181 42.4109 39.3102C40.9427 38.7248 39.6053 37.8528 38.4767 36.745C37.3303 35.5911 36.4308 34.2151 35.8333 32.7012C35.1705 30.9967 34.8441 29.1796 34.8721 27.3506V12.0763H41.8684V27.3506C41.8561 28.1952 42.0004 29.0347 42.2941 29.8265C42.5484 30.5124 42.9358 31.1412 43.4339 31.6765C43.9135 32.1664 44.4884 32.5525 45.1229 32.8112C45.779 33.069 46.4779 33.1997 47.1827 33.1963C47.8992 33.2011 48.6061 33.0312 49.2424 32.7012C49.8812 32.3621 50.4534 31.9101 50.9315 31.367C51.4135 30.8132 51.7968 30.1805 52.0644 29.4964C52.3367 28.8139 52.4765 28.0856 52.4763 27.3506V12.0763H59.5001V39.6953H57.8043L55.5042 36.4768ZM29.5029 39.6953H21.6071L7.38087 15.3361V39.6816H0V2.72314H7.90269L22.1358 27.0825V2.72314H29.5235L29.5029 39.6953Z" fill="white"/>
<path d="M155.637 8.50049C155.588 8.55216 155.535 8.60043 155.479 8.64493C155.353 8.65199 155.227 8.65199 155.101 8.64493L155.637 8.50049Z" fill="#FFF200"/>
<path d="M155.101 8.61739L155.637 8.50049C155.588 8.55216 155.535 8.60043 155.479 8.64493C155.353 8.64285 155.227 8.63364 155.101 8.61739Z" fill="#FFF200"/>
<path d="M113.096 25.7556C113.096 25.7556 113.096 25.8175 113.096 25.845C113.096 25.8725 113.096 26.0238 113.096 26.1132C113.109 25.9962 113.096 25.8725 113.096 25.7556ZM127.72 21.4573H127.665H127.727H127.72ZM127.473 21.416H127.356H127.418H127.473Z" fill="#A5CD39"/>
<path d="M113.096 25.7556C113.096 25.7556 113.096 25.8175 113.096 25.845C113.096 25.8725 113.096 26.0238 113.096 26.1132C113.109 25.9962 113.096 25.8725 113.096 25.7556ZM127.72 21.4573H127.665H127.727H127.72ZM127.473 21.416H127.356H127.418H127.473Z" fill="#A5CD39"/>
<path d="M113.096 25.7556C113.096 25.7556 113.096 25.8175 113.096 25.845C113.096 25.8725 113.096 26.0238 113.096 26.1132C113.109 25.9962 113.096 25.8725 113.096 25.7556ZM127.72 21.4573H127.665H127.727H127.72ZM127.473 21.416H127.356H127.418H127.473Z" fill="#A5CD39"/>
<path d="M113.096 25.7556C113.096 25.7556 113.096 25.8175 113.096 25.845C113.096 25.8725 113.096 26.0238 113.096 26.1132C113.109 25.9962 113.096 25.8725 113.096 25.7556ZM127.72 21.4573H127.665H127.727H127.72ZM127.473 21.416H127.356H127.418H127.473Z" fill="#A5CD39"/>
<path d="M126.21 11.7808C129.581 11.7815 132.824 13.078 135.269 15.4031C137.714 17.7281 139.175 20.9044 139.351 24.2768C139.351 24.0773 139.351 23.871 139.351 23.6647C139.354 21.282 138.831 18.9281 137.82 16.7714C136.808 14.6147 135.334 12.7086 133.501 11.1893C130.748 9.18986 127.433 8.11603 124.033 8.1221C119.736 8.1221 115.614 9.83208 112.575 12.8759C109.537 15.9196 107.829 20.0479 107.829 24.3524C107.826 26.7271 108.345 29.0733 109.349 31.2246C110.353 33.3758 111.817 35.2794 113.638 36.8003C116.551 39.2469 120.232 40.5862 124.033 40.5828C125.423 40.5843 126.808 40.4063 128.153 40.0532C131.17 39.2618 133.895 37.6139 136 35.3079C137.303 33.65 138.171 31.6927 138.527 29.6136C138.61 29.182 138.665 28.7455 138.692 28.3069C138.692 27.9905 138.692 27.681 138.692 27.3716C138.697 23.9606 137.353 20.6865 134.952 18.2669C132.552 15.8472 129.292 14.4793 125.887 14.4629H125.283C124.987 14.4629 124.692 14.5042 124.404 14.5386C126.893 14.6136 129.281 15.5426 131.168 17.17C133.055 18.7974 134.327 21.0247 134.771 23.479C134.095 22.2978 133.119 21.3167 131.942 20.6355C130.765 19.9543 129.429 19.5971 128.07 19.6003C126.854 19.5988 125.655 19.8852 124.57 20.4362C123.486 20.9871 122.546 21.787 121.829 22.7707C123.139 21.8266 124.713 21.3211 126.326 21.3265H126.676H126.834H127.116H127.184H127.384H127.5H127.535H127.693H127.885H128.002H128.084C128.198 21.349 128.31 21.3788 128.42 21.4159L128.537 21.4502C129.988 21.8822 131.261 22.7711 132.168 23.9852C133.074 25.1993 133.566 26.6738 133.57 28.19C133.573 30.0299 132.847 31.7959 131.551 33.1003L131.4 33.2447L131.077 33.5267L130.926 33.6574C130.41 34.0893 129.851 34.4672 129.258 34.7853C127.662 35.6645 125.869 36.1235 124.047 36.1194H123.559C121.007 36.0156 118.575 35.0093 116.693 33.2792C116.515 33.1141 116.343 32.949 116.178 32.7771C116.014 32.6052 115.931 32.5158 115.814 32.3782L115.533 32.0481C115.513 32.031 115.497 32.0099 115.485 31.9862C114.511 30.7746 113.808 29.3674 113.425 27.8599C113.425 27.7292 113.363 27.6054 113.343 27.4816C113.322 27.3578 113.26 27.0827 113.226 26.8764C113.192 26.6701 113.178 26.5601 113.157 26.395V26.2299C113.157 26.113 113.157 25.9961 113.157 25.8792C113.157 25.7623 113.157 25.7004 113.157 25.611C113.157 25.3153 113.123 25.0196 113.123 24.7238C113.184 21.2817 114.587 18.0001 117.033 15.5812C119.479 13.1623 122.773 11.7982 126.21 11.7808ZM131.496 23.3484L131.407 23.2659L131.496 23.3415V23.3484Z" fill="#A5CD39"/>
<path d="M133.378 30.0744C133.378 30.0744 133.419 30.4802 133.419 31.2573C133.375 32.8713 133.085 34.4691 132.56 35.9957C131.451 36.7168 130.256 37.2967 129.004 37.7219C127.315 38.3005 125.543 38.5956 123.758 38.5953C121.681 38.5979 119.622 38.1986 117.696 37.4193C118.746 38.5601 119.955 39.5424 121.287 40.3352C117.491 39.6894 114.058 37.6856 111.626 34.6959C110.499 33.3982 109.599 31.9195 108.962 30.3219C108.204 28.4146 107.824 26.3778 107.843 24.325C107.843 24.0018 107.843 23.6373 107.877 23.3003C108.022 20.9646 108.666 18.6873 109.766 16.6224C110.907 14.4927 112.518 12.6512 114.476 11.2375C117.083 9.30611 120.215 8.21477 123.456 8.10838C125.789 8.02348 128.112 8.44339 130.267 9.33944C130.48 9.58702 130.741 9.93776 130.954 10.1991C131.363 10.7393 131.734 11.3068 132.066 11.8978C132.19 12.0972 132.3 12.3035 132.403 12.5099C132.162 12.3792 131.922 12.2485 131.668 12.1247C129.929 11.2656 128.05 10.7296 126.12 10.543C125.598 10.4948 125.063 10.4673 124.527 10.4673C121.76 10.4636 119.038 11.1741 116.625 12.5305C117.547 12.9786 118.505 13.3512 119.488 13.6446C118.947 13.9466 118.438 14.3039 117.97 14.7106C115.004 17.4134 113.068 20.7007 113.068 24.9233C113.04 26.4489 113.311 27.9652 113.865 29.3866C113.823 29.2147 113.865 29.5586 113.865 29.3866C114.476 30.9449 115.435 32.3428 116.668 33.4738C117.9 34.6048 119.374 35.4391 120.978 35.9132C121.729 36.1243 122.499 36.2557 123.278 36.3052H123.765C127.974 36.3052 131.915 34.4002 133.302 30.3701L133.378 30.0744Z" fill="white"/>
<path fill-rule="evenodd" clip-rule="evenodd" d="M118.252 7.37249C119.666 0.110099 123.14 3.85133 125.331 0.233887C124.85 4.1333 123.36 6.67791 119.096 7.22121C120.415 5.06863 121.506 4.27087 123.443 2.71661C120.264 4.51846 120.325 4.65597 118.252 7.37249Z" fill="#A5CD39"/>
<path fill-rule="evenodd" clip-rule="evenodd" d="M108.104 0C108.159 5.06855 111.613 8.14953 116.343 8.78224C115.066 5.99695 112.787 4.37395 110.267 2.8472C114.517 4.45648 114.936 5.30238 117.284 9.03674C116.542 1.121 111.365 3.2667 108.104 0Z" fill="#A5CD39"/>
</g>
<defs>
<clipPath id="clip0_333_9347">
<rect width="209.981" height="52.7349" fill="white"/>
</clipPath>
</defs>
</svg>
