<svg width="105" height="108" viewBox="0 0 105 108" fill="none" xmlns="http://www.w3.org/2000/svg">
<path d="M35.0025 38.7754C31.5262 34.6996 29.6077 29.1955 29.9705 22.9834C40.1387 22.1296 48.5458 27.459 51.9852 35.8374C54.831 27.2367 62.8444 21.3415 73.0514 21.484C73.8481 27.6597 72.3117 33.28 69.1307 37.5907" stroke="#A5CD39" stroke-width="5.04" stroke-miterlimit="10" stroke-linecap="round" stroke-linejoin="round"/>
<path d="M42.7923 25.5429C41.936 18.2085 44.6173 10.5727 50.905 4.72542C57.5832 10.1225 60.7878 17.5539 60.442 24.9301" stroke="#A5CD39" stroke-width="5.04" stroke-miterlimit="10" stroke-linecap="round" stroke-linejoin="round"/>
<path d="M35.5496 54.5405C32.0735 50.4649 30.1549 44.9605 30.5178 38.7484C40.6861 37.8948 49.0931 43.224 52.5324 51.6024C55.3783 43.002 63.3959 37.1104 73.6028 37.2529C74.3955 43.4249 72.859 49.045 69.678 53.3557" stroke="#A5CD39" stroke-width="5.04" stroke-miterlimit="10" stroke-linecap="round" stroke-linejoin="round"/>
<path d="M52.7106 93.4208C53.0874 93.4269 53.4676 93.4215 53.8399 93.4089C53.8864 93.4072 53.9369 93.4093 53.9835 93.4076C54.03 93.406 54.0765 93.4043 54.1267 93.3988C54.4991 93.3858 54.8748 93.361 55.2542 93.3324L55.2502 93.3287C67.8017 92.237 76.3577 81.7303 74.6971 68.783C64.4902 68.6406 56.4767 74.5359 53.6267 83.1326C50.1877 74.7544 41.7846 69.4286 31.6121 70.2788C30.8492 83.3061 40.1133 93.1941 52.7066 93.4171L52.7106 93.4208Z" stroke="#A5CD39" stroke-width="5.04" stroke-miterlimit="10" stroke-linecap="round" stroke-linejoin="round"/>
<path d="M36.0968 70.3059C32.6207 66.2302 30.7022 60.7259 31.065 54.5138C41.2374 53.664 49.6405 58.9895 53.0797 67.3678C55.9296 58.7712 63.9432 52.8758 74.1499 53.0184C74.9426 59.1904 73.4064 64.8105 70.2252 69.1214" stroke="#A5CD39" stroke-width="5.04" stroke-miterlimit="10" stroke-linecap="round" stroke-linejoin="round"/>
<path d="M51.985 35.8376L54.4027 105.482" stroke="#A5CD39" stroke-width="5.04" stroke-miterlimit="10" stroke-linecap="round" stroke-linejoin="round"/>
<path d="M98 26L10.6817 101.85" stroke="#A5CD39" stroke-width="5" stroke-linecap="round"/>
</svg>
