<svg width="40" height="40" viewBox="0 0 40 40" fill="none" xmlns="http://www.w3.org/2000/svg">
<path d="M20.8901 20.4934C20.7568 20.4801 20.5968 20.4801 20.4501 20.4934C18.9197 20.4414 17.4697 19.7958 16.407 18.6933C15.3443 17.5908 14.7525 16.118 14.7568 14.5867C14.7568 11.3201 17.3968 8.66673 20.6768 8.66673C21.4533 8.65273 22.2251 8.79181 22.9479 9.07604C23.6707 9.36027 24.3304 9.78409 24.8894 10.3233C25.4484 10.8625 25.8957 11.5065 26.2059 12.2186C26.516 12.9307 26.6828 13.6969 26.6968 14.4734C26.7108 15.25 26.5717 16.0217 26.2875 16.7445C26.0033 17.4673 25.5794 18.127 25.0402 18.686C24.5011 19.245 23.857 19.6923 23.1449 20.0025C22.4329 20.3126 21.6667 20.4794 20.8901 20.4934ZM14.2235 25.4134C10.9968 27.5734 10.9968 31.0934 14.2235 33.2401C17.8901 35.6934 23.9035 35.6934 27.5701 33.2401C30.7968 31.0801 30.7968 27.5601 27.5701 25.4134C23.9168 22.9734 17.9035 22.9734 14.2235 25.4134Z" stroke="black" stroke-width="1.5" stroke-linecap="round" stroke-linejoin="round"/>
</svg>
