<svg width="39" height="40" viewBox="0 0 39 40" fill="none" xmlns="http://www.w3.org/2000/svg">
<mask id="mask0_333_65" style="mask-type:alpha" maskUnits="userSpaceOnUse" x="0" y="0" width="39" height="40">
<rect width="39" height="40" fill="#D9D9D9"/>
</mask>
<g mask="url(#mask0_333_65)">
<path d="M10.8594 35.0641C10.1115 35.0641 9.48698 34.8105 8.98594 34.3032C8.4849 33.7959 8.23438 33.1636 8.23438 32.4063V14.6876C8.23438 13.9304 8.4849 13.2981 8.98594 12.7908C9.48698 12.2835 10.1115 12.0298 10.8594 12.0298H13.9219V11.2072C13.9219 9.60827 14.475 8.24878 15.5812 7.12871C16.6875 6.00864 18.0302 5.44861 19.6094 5.44861C21.1885 5.44861 22.5313 6.00864 23.6375 7.12871C24.7438 8.24878 25.2969 9.60827 25.2969 11.2072V12.0298H28.3594C29.1073 12.0298 29.7318 12.2835 30.2328 12.7908C30.7339 13.2981 30.9844 13.9304 30.9844 14.6876V32.4063C30.9844 33.1636 30.7339 33.7959 30.2328 34.3032C29.7318 34.8105 29.1073 35.0641 28.3594 35.0641H10.8594ZM10.8594 33.4188H28.3594C28.6094 33.4188 28.8385 33.3133 29.0469 33.1024C29.2552 32.8915 29.3594 32.6594 29.3594 32.4063V14.6876C29.3594 14.4345 29.2552 14.2025 29.0469 13.9915C28.8385 13.7806 28.6094 13.6751 28.3594 13.6751H25.2969V17.7884C25.2969 18.0225 25.2193 18.2182 25.0641 18.3753C24.9089 18.5325 24.7156 18.6111 24.4844 18.6111C24.2531 18.6111 24.0599 18.5325 23.9047 18.3753C23.7495 18.2182 23.6719 18.0225 23.6719 17.7884V13.6751H15.5469V17.7884C15.5469 18.0225 15.4693 18.2182 15.3141 18.3753C15.1589 18.5325 14.9656 18.6111 14.7344 18.6111C14.5031 18.6111 14.3099 18.5325 14.1547 18.3753C13.9995 18.2182 13.9219 18.0225 13.9219 17.7884V13.6751H10.8594C10.6094 13.6751 10.3802 13.7806 10.1719 13.9915C9.96354 14.2025 9.85938 14.4345 9.85938 14.6876V32.4063C9.85938 32.6594 9.96354 32.8915 10.1719 33.1024C10.3802 33.3133 10.6094 33.4188 10.8594 33.4188ZM15.5469 12.0298H23.6719V11.2072C23.6719 10.0491 23.2807 9.07408 22.4984 8.28203C21.7161 7.48995 20.7531 7.09391 19.6094 7.09391C18.4656 7.09391 17.5026 7.48995 16.7203 8.28203C15.938 9.07408 15.5469 10.0491 15.5469 11.2072V12.0298Z" fill="#1C1B1F"/>
</g>
</svg>
