<svg width="25" height="25" viewBox="0 0 25 25" fill="none" xmlns="http://www.w3.org/2000/svg">
<mask id="mask0_333_9769" style="mask-type:alpha" maskUnits="userSpaceOnUse" x="0" y="0" width="25" height="25">
<rect x="0.346191" y="0.60791" width="24" height="24" fill="#D9D9D9"/>
</mask>
<g mask="url(#mask0_333_9769)">
<path d="M6.65389 22.1079C6.14876 22.1079 5.72119 21.9329 5.37119 21.5829C5.02119 21.2329 4.84619 20.8053 4.84619 20.3002V8.91564C4.84619 8.41051 5.02119 7.98294 5.37119 7.63294C5.72119 7.28294 6.14876 7.10794 6.65389 7.10794H8.59619V6.85794C8.59619 5.82204 8.96222 4.93807 9.69427 4.20602C10.4263 3.47397 11.3103 3.10794 12.3462 3.10794C13.3821 3.10794 14.266 3.47397 14.9981 4.20602C15.7301 4.93807 16.0961 5.82204 16.0961 6.85794V7.10794H18.0384C18.5436 7.10794 18.9711 7.28294 19.3211 7.63294C19.6711 7.98294 19.8461 8.41051 19.8461 8.91564V20.3002C19.8461 20.8053 19.6711 21.2329 19.3211 21.5829C18.9711 21.9329 18.5436 22.1079 18.0384 22.1079H6.65389ZM6.65389 20.6079H18.0384C18.1154 20.6079 18.1859 20.5759 18.25 20.5118C18.3141 20.4477 18.3462 20.3771 18.3462 20.3002V8.91564C18.3462 8.83871 18.3141 8.76818 18.25 8.70407C18.1859 8.63997 18.1154 8.60792 18.0384 8.60792H16.0961V10.8579C16.0961 11.0708 16.0243 11.249 15.8808 11.3925C15.7372 11.5361 15.559 11.6079 15.3462 11.6079C15.1334 11.6079 14.9552 11.5361 14.8116 11.3925C14.668 11.249 14.5962 11.0708 14.5962 10.8579V8.60792H10.0961V10.8579C10.0961 11.0708 10.0243 11.249 9.88077 11.3925C9.73718 11.5361 9.55898 11.6079 9.34617 11.6079C9.13335 11.6079 8.95515 11.5361 8.81157 11.3925C8.66798 11.249 8.59619 11.0708 8.59619 10.8579V8.60792H6.65389C6.57696 8.60792 6.50643 8.63997 6.44232 8.70407C6.37822 8.76818 6.34617 8.83871 6.34617 8.91564V20.3002C6.34617 20.3771 6.37822 20.4477 6.44232 20.5118C6.50643 20.5759 6.57696 20.6079 6.65389 20.6079ZM10.0961 7.10794H14.5962V6.85794C14.5962 6.23101 14.3779 5.69927 13.9414 5.26274C13.5048 4.82619 12.9731 4.60792 12.3462 4.60792C11.7192 4.60792 11.1875 4.82619 10.751 5.26274C10.3144 5.69927 10.0961 6.23101 10.0961 6.85794V7.10794Z" fill="#A6A6A6"/>
</g>
</svg>
