<svg width="47" height="90" viewBox="0 0 47 90" fill="none" xmlns="http://www.w3.org/2000/svg">
<path d="M2.5 66.9999C3.3 85.3999 17.1667 89.6665 24 89.4999C29.6 90.405 37 85.2104 40 82.5C50 69.7 46.1667 64.1667 43 63C49 52.6 44.5 48.6667 41.5 48C44.7 46.0001 44.8333 38.5 44.5 34.9999L41.5 32L44.5 19.0001C44.5 15.4001 35.5 17.5001 31 19.0001C31.8 10.6001 25.3333 3.16671 22 0.5C17.6 2.1 13.8333 14.8333 12.5 21C11.1667 20.3334 8.2 19.0001 7.00001 19.0001C-2.99999 15.4001 0.833334 28.1666 4 34.9999C-1.74046e-05 34.5999 2.33332 45.1665 4 50.4999C-0.800005 50.4999 2.66666 60.8332 5 65.9999L2.5 66.9999Z" fill="#F2FBFF"/>
</svg>
