<svg width="20" height="21" viewBox="0 0 20 21" fill="none" xmlns="http://www.w3.org/2000/svg">
<path d="M9.05 13.5447L7.2 15.3947C6.81 15.7847 6.19 15.7847 5.79 15.4047C5.68 15.2947 5.57 15.1947 5.46 15.0847C4.44877 14.0667 3.5161 12.9736 2.67 11.8147C1.85 10.6747 1.19 9.53473 0.71 8.40473C0.24 7.26473 0 6.17473 0 5.13473C0 4.45473 0.12 3.80473 0.36 3.20473C0.6 2.59473 0.98 2.03473 1.51 1.53473C2.15 0.904727 2.85 0.594727 3.59 0.594727C3.87 0.594727 4.15 0.654727 4.4 0.774727C4.66 0.894727 4.89 1.07473 5.07 1.33473L7.39 4.60473C7.57 4.85473 7.7 5.08473 7.79 5.30473C7.88 5.51473 7.93 5.72473 7.93 5.91473C7.93 6.15473 7.86 6.39473 7.72 6.62473C7.59 6.85473 7.4 7.09473 7.16 7.33473L6.4 8.12473C6.29 8.23473 6.24 8.36473 6.24 8.52473C6.24 8.60473 6.25 8.67473 6.27 8.75473C6.3 8.83473 6.33 8.89473 6.35 8.95473C6.53 9.28473 6.84 9.71473 7.28 10.2347C7.73 10.7547 8.21 11.2847 8.73 11.8147C8.83 11.9147 8.94 12.0147 9.04 12.1147C9.44 12.5047 9.45 13.1447 9.05 13.5447ZM19.97 16.9247C19.9687 17.3021 19.8833 17.6745 19.72 18.0147C19.55 18.3747 19.33 18.7147 19.04 19.0347C18.55 19.5747 18.01 19.9647 17.4 20.2147C17.39 20.2147 17.38 20.2247 17.37 20.2247C16.78 20.4647 16.14 20.5947 15.45 20.5947C14.43 20.5947 13.34 20.3547 12.19 19.8647C11.04 19.3747 9.89 18.7147 8.75 17.8847C8.36 17.5947 7.97 17.3047 7.6 16.9947L10.87 13.7247C11.15 13.9347 11.4 14.0947 11.61 14.2047C11.66 14.2247 11.72 14.2547 11.79 14.2847C11.87 14.3147 11.95 14.3247 12.04 14.3247C12.21 14.3247 12.34 14.2647 12.45 14.1547L13.21 13.4047C13.46 13.1547 13.7 12.9647 13.93 12.8447C14.16 12.7047 14.39 12.6347 14.64 12.6347C14.83 12.6347 15.03 12.6747 15.25 12.7647C15.47 12.8547 15.7 12.9847 15.95 13.1547L19.26 15.5047C19.52 15.6847 19.7 15.8947 19.81 16.1447C19.91 16.3947 19.97 16.6447 19.97 16.9247Z" fill="#A5CD39"/>
</svg>
