<svg width="22" height="22" viewBox="0 0 22 22" fill="none" xmlns="http://www.w3.org/2000/svg">
<path d="M15.8277 0.304688H5.27589C2.3636 0.304688 0 2.65773 0 5.55947V12.9246C0 15.8264 2.3636 18.1794 5.27589 18.1794H6.85866C7.14355 18.1794 7.52342 18.3693 7.7028 18.6015L9.28557 20.7013C9.98198 21.6298 11.1216 21.6298 11.818 20.7013L13.4008 18.6015C13.6012 18.3377 13.9178 18.1794 14.2449 18.1794H15.8277C18.74 18.1794 21.1036 15.8264 21.1036 12.9246V5.55947C21.1036 2.65773 18.74 0.304688 15.8277 0.304688ZM11.607 12.703H5.27589C4.84327 12.703 4.48451 12.3443 4.48451 11.9116C4.48451 11.479 4.84327 11.1203 5.27589 11.1203H11.607C12.0396 11.1203 12.3983 11.479 12.3983 11.9116C12.3983 12.3443 12.0396 12.703 11.607 12.703ZM15.8277 7.42714H5.27589C4.84327 7.42714 4.48451 7.06838 4.48451 6.63576C4.48451 6.20313 4.84327 5.84437 5.27589 5.84437H15.8277C16.2603 5.84437 16.6191 6.20313 16.6191 6.63576C16.6191 7.06838 16.2603 7.42714 15.8277 7.42714Z" fill="#A5CD39"/>
</svg>
