<svg width="20" height="21" viewBox="0 0 20 21" fill="none" xmlns="http://www.w3.org/2000/svg">
<path d="M5.67482 19.4489C5.64501 19.4489 5.60526 19.4687 5.57544 19.4687C3.64754 18.5147 2.07739 16.9346 1.11343 15.0067C1.11343 14.9769 1.13331 14.9372 1.13331 14.9073C2.3457 15.2651 3.59785 15.5334 4.84006 15.7421C5.05869 16.9943 5.31707 18.2365 5.67482 19.4489ZM18.883 15.0167C17.8991 16.9943 16.2594 18.5942 14.262 19.5582C14.6396 18.2961 14.9576 17.0241 15.1663 15.7421C16.4184 15.5334 17.6507 15.2651 18.8631 14.9073C18.8532 14.9471 18.883 14.9868 18.883 15.0167ZM18.9625 6.33114C17.7103 5.95351 16.4482 5.64545 15.1663 5.42682C14.9576 4.14486 14.6495 2.87284 14.262 1.63063C16.3191 2.61446 17.9786 4.27405 18.9625 6.33114ZM5.67582 1.73895C5.31806 2.95134 5.05968 4.18361 4.85099 5.43576C3.56903 5.63451 2.29701 5.95252 1.03493 6.33015C1.99888 4.33268 3.59884 2.69297 5.57644 1.70914C5.60625 1.70914 5.646 1.73895 5.67582 1.73895ZM13.4689 5.21813C11.1634 4.95975 8.83798 4.95975 6.53244 5.21813C6.78088 3.85667 7.09889 2.49521 7.54608 1.18343C7.56596 1.10393 7.55602 1.04431 7.56596 0.964806C8.35103 0.77599 9.15598 0.656738 10.0007 0.656738C10.8354 0.656738 11.6503 0.77599 12.4255 0.964806C12.4354 1.04431 12.4354 1.10393 12.4553 1.18343C12.9025 2.50514 13.2205 3.85667 13.4689 5.21813ZM4.62242 14.0646C3.25103 13.8162 1.8995 13.4982 0.587731 13.051C0.50823 13.0311 0.448604 13.0411 0.369103 13.0311C0.180287 12.246 0.0610352 11.4411 0.0610352 10.5964C0.0610352 9.76163 0.180287 8.94674 0.369103 8.1716C0.448604 8.16166 0.50823 8.16166 0.587731 8.14179C1.90944 7.70453 3.25103 7.37659 4.62242 7.12814C4.37398 9.43368 4.37398 11.7591 4.62242 14.0646ZM19.9364 10.5964C19.9364 11.4411 19.8171 12.246 19.6283 13.0311C19.5488 13.0411 19.4892 13.0311 19.4097 13.051C18.088 13.4882 16.7364 13.8162 15.375 14.0646C15.6334 11.7591 15.6334 9.43368 15.375 7.12814C16.7364 7.37659 18.0979 7.69459 19.4097 8.14179C19.4892 8.16166 19.5488 8.1716 19.6283 8.1716C19.8171 8.95667 19.9364 9.76163 19.9364 10.5964ZM13.4689 15.9707C13.2205 17.3421 12.9025 18.6936 12.4553 20.0054C12.4354 20.0849 12.4354 20.1445 12.4255 20.224C11.6503 20.4128 10.8354 20.5321 10.0007 20.5321C9.15598 20.5321 8.35103 20.4128 7.56596 20.224C7.55602 20.1445 7.56596 20.0849 7.54608 20.0054C7.11395 18.6859 6.77523 17.3377 6.53244 15.9707C7.68521 16.0999 8.83798 16.1893 10.0007 16.1893C11.1634 16.1893 12.3261 16.0999 13.4689 15.9707ZM13.7382 14.3339C11.2551 14.6475 8.74232 14.6475 6.25916 14.3339C5.94562 11.8508 5.94562 9.33803 6.25916 6.85486C8.74233 6.54132 11.2551 6.54132 13.7382 6.85486C14.0518 9.33803 14.0518 11.8508 13.7382 14.3339Z" fill="#A5CD39"/>
</svg>
