<svg width="82" height="107" viewBox="0 0 82 107" fill="none" xmlns="http://www.w3.org/2000/svg">
<path d="M66.3089 24.8981C66.0864 11.1312 54.8199 0 41.001 0C27.0449 0 15.6911 11.3538 15.6911 25.31C15.6911 25.5908 15.6973 25.8737 15.7077 26.1629C6.45907 29.3352 0 38.1699 0 48.1383C0 52.178 1.03803 56.093 3.01839 59.5794C1.03803 63.0638 0 66.9788 0 71.0185C0 83.8285 10.4198 94.2483 23.2298 94.2483C26.2981 94.2483 29.2811 93.6492 32.1144 92.4656C33.972 93.2415 35.9128 93.7366 37.8786 94.0028V99.7942H30.1694C28.4449 99.7942 27.049 101.19 27.049 102.914C27.049 104.639 28.4449 106.035 30.1694 106.035H51.8265C53.551 106.035 54.9468 104.639 54.9468 102.914C54.9468 101.19 53.551 99.7942 51.8265 99.7942H44.1214V94.0028C46.0872 93.7345 48.028 93.2394 49.8856 92.4656C52.721 93.6492 55.7019 94.2483 58.7702 94.2483C71.5802 94.2483 82 83.8285 82 71.0185C82 66.7146 80.8288 62.5812 78.5926 58.9387C80.8288 55.2984 82 51.165 82 46.861C82 36.9259 75.5409 28.0767 66.3089 24.8981ZM72.3312 60.8172C74.5757 63.794 75.7614 67.322 75.7614 71.0185C75.7614 80.3858 68.1395 88.0077 58.7723 88.0077C56.1679 88.0077 53.6425 87.4127 51.269 86.2395C50.8342 86.0252 50.3599 85.917 49.8877 85.917C49.4155 85.917 48.9412 86.0252 48.5065 86.2395C47.1002 86.9322 45.6254 87.3961 44.1255 87.679V75.1519L60.4469 56.2698C61.5744 54.9655 61.4308 52.9956 60.1265 51.8681C58.8222 50.7427 56.8523 50.8841 55.7248 52.1884L44.1214 65.61V46.8672L55.0466 34.2258C56.1741 32.9215 56.0306 30.9515 54.7263 29.824C53.422 28.6966 51.452 28.838 50.3246 30.1444L44.1214 37.3253V25.31C44.1214 23.5855 42.7255 22.1897 41.001 22.1897C39.2765 22.1897 37.8807 23.5855 37.8807 25.31V37.3274L31.6734 30.1465C30.5459 28.8422 28.5759 28.7007 27.2716 29.8261C25.9673 30.9515 25.8238 32.9236 26.9513 34.2279L37.8786 46.8714V65.6121L26.2773 52.1905C25.1519 50.8862 23.1798 50.7448 21.8755 51.8702C20.5733 52.9976 20.4277 54.9676 21.5552 56.2719L37.8786 75.1561V87.6811C36.3788 87.3982 34.9019 86.9364 33.4956 86.2416C32.6261 85.811 31.6047 85.811 30.7331 86.2416C28.3575 87.4148 25.8342 88.0097 23.2298 88.0097C13.8626 88.0097 6.24065 80.3878 6.24065 71.0206C6.24065 67.5529 7.28699 64.2142 9.26528 61.3601C10.0058 60.2909 10.0079 58.8742 9.26528 57.805C7.28491 54.9489 6.23856 51.6081 6.23856 48.1424C6.23856 40.1606 11.9009 33.1711 19.7017 31.5257C21.3097 31.1866 22.379 29.6597 22.146 28.033C21.9962 26.9866 21.9275 26.1213 21.9275 25.3141C21.9275 14.7986 30.4814 6.24481 40.9969 6.24481C51.5124 6.24481 60.0662 14.7986 60.0662 25.3141C60.0662 25.8737 60.0267 26.4229 59.9809 26.97C59.8499 28.5302 60.8921 29.9468 62.421 30.2817C70.1469 31.975 75.7552 38.9499 75.7552 46.8652C75.7552 50.5617 74.5695 54.0898 72.3249 57.0645C71.4928 58.1732 71.4928 59.7063 72.3312 60.8172Z" fill="#A5CD39"/>
</svg>
