<svg width="19" height="19" viewBox="0 0 19 19" fill="none" xmlns="http://www.w3.org/2000/svg">
<path d="M9.21219 0.591514C9.27206 0.407252 9.53275 0.407252 9.59262 0.591514L11.6611 6.95778C11.6879 7.04018 11.7647 7.09598 11.8514 7.09598H18.5452C18.739 7.09598 18.8195 7.3439 18.6628 7.45778L13.2473 11.3923C13.1772 11.4433 13.1479 11.5335 13.1747 11.616L15.2432 17.9822C15.3031 18.1665 15.0922 18.3197 14.9354 18.2058L9.51996 14.2713C9.44986 14.2203 9.35495 14.2203 9.28485 14.2713L3.86938 18.2058C3.71264 18.3197 3.50174 18.1665 3.56161 17.9822L5.63014 11.616C5.65691 11.5335 5.62758 11.4433 5.55748 11.3923L0.142013 7.45778C-0.0147295 7.3439 0.0658254 7.09598 0.25957 7.09598H6.95346C7.0401 7.09598 7.11689 7.04018 7.14367 6.95778L9.21219 0.591514Z" fill="#FFAC60"></path>
</svg>
