<svg width="19" height="19" viewBox="0 0 19 19" fill="none" xmlns="http://www.w3.org/2000/svg">
<path d="M9.25443 0.591514C9.3143 0.407252 9.57498 0.407252 9.63485 0.591514L11.7034 6.95778C11.7302 7.04018 11.8069 7.09598 11.8936 7.09598H18.5875C18.7812 7.09598 18.8618 7.3439 18.705 7.45778L13.2896 11.3923C13.2195 11.4433 13.1901 11.5335 13.2169 11.616L15.2854 17.9822C15.3453 18.1665 15.1344 18.3197 14.9777 18.2058L9.5622 14.2713C9.4921 14.2203 9.39718 14.2203 9.32708 14.2713L3.91162 18.2058C3.75487 18.3197 3.54398 18.1665 3.60385 17.9822L5.67237 11.616C5.69915 11.5335 5.66982 11.4433 5.59972 11.3923L0.18425 7.45778C0.0275068 7.3439 0.108062 7.09598 0.301806 7.09598H6.99569C7.08234 7.09598 7.15913 7.04018 7.1859 6.95778L9.25443 0.591514Z" fill="#D9D9D9"></path>
</svg>
