<svg width="20" height="19" viewBox="0 0 20 19" fill="none" xmlns="http://www.w3.org/2000/svg">
<path d="M9.69114 0.591514C9.75101 0.407252 10.0117 0.407252 10.0716 0.591514L12.1401 6.95778C12.1669 7.04018 12.2437 7.09598 12.3303 7.09598H19.0242C19.2179 7.09598 19.2985 7.3439 19.1417 7.45778L13.7263 11.3923C13.6562 11.4433 13.6268 11.5335 13.6536 11.616L15.7221 17.9822C15.782 18.1665 15.5711 18.3197 15.4144 18.2058L9.99891 14.2713C9.92881 14.2203 9.83389 14.2203 9.76379 14.2713L4.34832 18.2058C4.19158 18.3197 3.98068 18.1665 4.04055 17.9822L6.10908 11.616C6.13585 11.5335 6.10652 11.4433 6.03642 11.3923L0.620956 7.45778C0.464213 7.3439 0.544768 7.09598 0.738513 7.09598H7.4324C7.51904 7.09598 7.59584 7.04018 7.62261 6.95778L9.69114 0.591514Z" fill="#FFAC60"></path>
</svg>
