<svg width="19" height="19" viewBox="0 0 19 19" fill="none" xmlns="http://www.w3.org/2000/svg">
<path d="M9.17002 0.591514C9.22989 0.407252 9.49057 0.407252 9.55044 0.591514L11.619 6.95778C11.6457 7.04018 11.7225 7.09598 11.8092 7.09598H18.5031C18.6968 7.09598 18.7774 7.3439 18.6206 7.45778L13.2052 11.3923C13.1351 11.4433 13.1057 11.5335 13.1325 11.616L15.201 17.9822C15.2609 18.1665 15.05 18.3197 14.8933 18.2058L9.47779 14.2713C9.40769 14.2203 9.31277 14.2203 9.24267 14.2713L3.8272 18.2058C3.67046 18.3197 3.45957 18.1665 3.51944 17.9822L5.58796 11.616C5.61474 11.5335 5.5854 11.4433 5.51531 11.3923L0.0998379 7.45778C-0.0569048 7.3439 0.0236501 7.09598 0.217395 7.09598H6.91128C6.99793 7.09598 7.07472 7.04018 7.10149 6.95778L9.17002 0.591514Z" fill="#FFAC60"></path>
</svg>
